<svg xmlns="http://www.w3.org/2000/svg" width="126" height="34" fill="none"><path fill="url(#a)" d="M42.934 7.364h8.824c5.63 0 10.88 2.945 10.88 9.444 0 5.75-4.304 9.678-10.786 9.678h-8.918V7.364Zm8.043 17.181c6.056 0 9.225-2.781 9.225-7.714 0-4.441-2.933-7.48-9.249-7.48h-5.559v15.194h5.583Zm-4.353-14.12h4.282c5.535 0 7.995 2.268 7.995 6.453 0 4.044-2.673 6.592-7.995 6.592h-4.282V10.426Zm4.637 11.058c3.69 0 5.204-1.496 5.204-4.628 0-2.9-1.443-4.442-5.204-4.442h-2.224v9.07h2.224Z"/><path fill="url(#b)" d="M65.217 7.364h8.99c4.801 0 7.545 2.758 7.545 6.685 0 4.489-2.933 6.92-7.972 6.92h-2.46v5.517h-2.412v-7.48h4.447c3.974 0 5.96-1.707 5.96-5.003 0-2.9-1.868-4.676-5.7-4.676h-5.961v17.159h-2.437V7.364Zm3.69 3.062h4.353c3.24 0 4.826 1.216 4.826 3.764 0 2.618-1.538 3.74-4.826 3.74h-4.353v-7.504Zm4.211 5.54c2.034 0 2.531-.678 2.531-1.8 0-1.098-.591-1.777-2.53-1.777H71.32v3.554h1.798v.023Z"/><path fill="url(#c)" d="M84.378 7.364h13.814v1.963H86.814v15.195h11.52v1.964H84.379V7.364Zm3.69 3.062h10.124v1.987h-7.711v1.917h7.144v1.964h-9.557v-5.868Zm0 6.99h9.557v1.987H90.48v2.08h7.854v1.964H88.068v-6.031Z"/><path fill="url(#d)" d="m108.577 16.597-8.137-9.233h2.673l8.184 9.233-8.799 9.912h-2.673l8.752-9.912Zm3.383.842 8.066 9.07h-2.673l-5.393-6.265-5.417 6.265h-2.65l8.067-9.07Zm-7.475-10.075h2.673l4.778 5.633 4.849-5.633h2.673l-7.498 8.462-7.475-8.462Zm8.137 9.233 8.185-9.233h2.673l-8.185 9.233L124 26.51h-2.673l-8.705-9.912Z"/><path fill="#fff" d="M42.934 7.364h8.824c5.63 0 10.88 2.945 10.88 9.444 0 5.75-4.304 9.678-10.786 9.678h-8.918V7.364Zm8.043 17.181c6.056 0 9.225-2.781 9.225-7.714 0-4.441-2.933-7.48-9.249-7.48h-5.559v15.194h5.583Zm-4.353-14.12h4.282c5.535 0 7.995 2.268 7.995 6.453 0 4.044-2.673 6.592-7.995 6.592h-4.282V10.426Zm4.637 11.058c3.69 0 5.204-1.496 5.204-4.628 0-2.9-1.443-4.442-5.204-4.442h-2.224v9.07h2.224ZM65.217 7.364h8.99c4.801 0 7.545 2.758 7.545 6.685 0 4.489-2.933 6.92-7.972 6.92h-2.46v5.517h-2.412v-7.48h4.447c3.974 0 5.96-1.707 5.96-5.003 0-2.9-1.868-4.676-5.7-4.676h-5.961v17.159h-2.437V7.364Zm3.69 3.062h4.353c3.24 0 4.826 1.216 4.826 3.764 0 2.618-1.538 3.74-4.826 3.74h-4.353v-7.504Zm4.211 5.54c2.034 0 2.531-.678 2.531-1.8 0-1.098-.591-1.777-2.53-1.777H71.32v3.554h1.798v.023Zm11.26-8.602h13.814v1.963H86.814v15.195h11.52v1.964H84.379V7.364Zm3.69 3.062h10.124v1.987h-7.711v1.917h7.144v1.964h-9.557v-5.868Zm0 6.99h9.557v1.987H90.48v2.08h7.854v1.964H88.068v-6.031Zm20.509-.819-8.137-9.233h2.673l8.184 9.233-8.799 9.912h-2.673l8.752-9.912Zm3.383.842 8.066 9.07h-2.673l-5.393-6.265-5.417 6.265h-2.65l8.067-9.07Zm-7.475-10.075h2.673l4.778 5.633 4.849-5.633h2.673l-7.498 8.462-7.475-8.462Zm8.137 9.233 8.185-9.233h2.673l-8.185 9.233L124 26.51h-2.673l-8.705-9.912Z"/><g clip-path="url(#e)"><path fill="url(#f)" d="M17 0C7.668 0 0 7.668 0 17s7.668 17 17 17 17-7.668 17-17S26.332 0 17 0Z"/><path fill="#fff" fill-rule="evenodd" d="M15.951 8.844c8.374 2.17 12.967 3.87 13.51 6.348 0-.417.036-.923-.018-1.32a2.49 2.49 0 0 0-1.248-1.954L20.653 7.56a2.466 2.466 0 0 0-2.495 0L15.95 8.844Z" clip-rule="evenodd"/><path fill="#fff" fill-rule="evenodd" d="M29.46 19.875c.58-5.118-2.64-6.13-8.897-7.848C15.897 10.743 8.663 9.06 4.63 8.03c.307 2.495 2.64 4.467 4.991 5.01 5.553 1.283 18.067 2.622 19.84 6.835ZM19.966 21.9c-3.997-.795-8.048-1.229-11.99-1.7.524 1.629 1.392 3.491 5.154 3.89 3.147.325 11.285 1.084 11.936 2.676 3.943-2.532-2.622-4.377-5.1-4.865Zm3.744 5.644c.054-1.085-8.138-1.755-11.755-1.827l6.203 3.58c.76.453 1.718.453 2.514 0l3.038-1.753Z" clip-rule="evenodd"/><path fill="#fff" fill-rule="evenodd" d="M28.105 25.012c.126-2.243-3.6-3.292-6.348-4.051-3.437-.959-7.958-1.827-11.014-2.388-2.713-.488-4.395-2.314-5.371-4.828 2.025.434 4.05.886 6.094 1.266 2.279.416 6.348 1.302 8.735 1.862 3.636.85 6.764 1.917 8.283 3.563 1.411 1.52 1.339 3.364-.38 4.576Z" clip-rule="evenodd"/></g><defs><linearGradient id="a" x1="83.331" x2="83.215" y1="16.777" y2="9.038" gradientUnits="userSpaceOnUse"><stop stop-color="#0058A9"/><stop offset="1" stop-color="#00B8B0"/></linearGradient><linearGradient id="b" x1="83.331" x2="83.215" y1="16.777" y2="9.038" gradientUnits="userSpaceOnUse"><stop stop-color="#0058A9"/><stop offset="1" stop-color="#00B8B0"/></linearGradient><linearGradient id="c" x1="83.331" x2="83.215" y1="16.777" y2="9.038" gradientUnits="userSpaceOnUse"><stop stop-color="#0058A9"/><stop offset="1" stop-color="#00B8B0"/></linearGradient><linearGradient id="d" x1="83.331" x2="83.215" y1="16.777" y2="9.038" gradientUnits="userSpaceOnUse"><stop stop-color="#0058A9"/><stop offset="1" stop-color="#00B8B0"/></linearGradient><linearGradient id="f" x1="16.537" x2="18.194" y1="22.995" y2="1.451" gradientUnits="userSpaceOnUse"><stop stop-color="#0058A9"/><stop offset="1" stop-color="#00B8B0"/></linearGradient><clipPath id="e"><path fill="#fff" d="M0 0h34v34H0z"/></clipPath></defs></svg>