<svg xmlns="http://www.w3.org/2000/svg" width="54" height="54" fill="none"><rect width="54" height="54" fill="#141321" rx="16"/><path fill="url(#a)" d="M16.2609 19.5134c-3.2067-.8016-4.8434-4.5093-5.2609-6.2629 7.5155 1.7536 23.5988 5.7619 27.8075 7.766 4.2087 2.0042 4.5928 5.6784 4.2588 7.265-4.5094-6.0124-22.7971-7.766-26.8054-8.7681Z"/><path fill="url(#b)" d="M19.267 27.0291c-4.4091-.6013-6.8475-4.5928-7.5155-6.5135 7.432 1.3361 23.4484 4.6597 28.0579 7.265 4.6096 2.6054 2.9227 5.929 1.5031 7.265-1.002-4.5093-16.5341-7.265-22.0455-8.0165Z"/><path fill="url(#c)" d="m28.536 41.3086-7.5155-4.0083c7.4153.4008 12.7764 1.3361 14.53 1.7536l-2.0041 1.7536c-2.0042 1.6034-4.1753 1.0021-5.0104.5011Z"/><path fill="url(#d)" d="M20.2692 34.294c-3.2067-.2004-4.8434-3.4237-5.2609-5.0103 5.7619.7515 18.0373 2.6054 21.0435 4.0083 3.0062 1.4029 2.0876 3.7577 1.2526 4.7598-1.7537-2.2547-13.0269-3.5072-17.0352-3.7578Z"/><path fill="url(#e)" d="M35.3004 17.4265c5.812 2.0041 7.766 4.1753 8.0166 5.0103.2004-2.0041 0-3.8746-2.0042-5.0103-2.5052-1.4196-7.5155-3.7578-9.2691-4.2588-1.984-.5668-4.7599.4175-6.0125 1.2526.6681.167 3.4572 1.002 9.2692 3.0062Z"/><defs><linearGradient id="a" x1="7.7433" x2="44.5694" y1="8.7412" y2="29.5341" gradientUnits="userSpaceOnUse"><stop stop-color="#F6F7FB"/><stop offset="1" stop-color="#43ECC1"/></linearGradient><linearGradient id="b" x1="7.7432" x2="41.5631" y1="20.2651" y2="30.0353" gradientUnits="userSpaceOnUse"><stop stop-color="#F6F7FB"/><stop offset="1" stop-color="#38EBBC"/></linearGradient><linearGradient id="c" x1="35.5505" x2="19.0164" y1="39.555" y2="37.8013" gradientUnits="userSpaceOnUse"><stop stop-color="#40ECC0"/><stop offset="1" stop-color="#F6F7FB"/></linearGradient><linearGradient id="d" x1="11.5011" x2="38.0559" y1="29.2837" y2="37.8013" gradientUnits="userSpaceOnUse"><stop stop-color="#F6F7FB"/><stop offset="1" stop-color="#38EBBD"/></linearGradient><linearGradient id="e" x1="43.5675" x2="23.2756" y1="20.5155" y2="11.2464" gradientUnits="userSpaceOnUse"><stop stop-color="#39EBBD"/><stop offset="1" stop-color="#F6F7FB"/></linearGradient></defs></svg>