<svg width="67" height="67" viewBox="0 0 67 67" fill="none" xmlns="http://www.w3.org/2000/svg">
<g clip-path="url(#clip0_2001_501)">
<path opacity="0.3" d="M66.0871 33.1369C66.0871 14.9529 51.346 0.211914 33.1621 0.211914C14.9781 0.211914 0.237061 14.9529 0.237061 33.1369C0.237061 51.3209 14.9781 66.0619 33.1621 66.0619C51.346 66.0619 66.0871 51.3209 66.0871 33.1369Z" fill="#252F3E"/>
<path d="M43.5398 25.8085L40.3535 21.4848C40.1 21.1446 39.7703 20.8686 39.3909 20.6788C39.0115 20.489 38.593 20.3907 38.1688 20.3919H24.968C24.2444 20.3941 23.5512 20.6825 23.0396 21.1941C22.528 21.7057 22.2395 22.399 22.2373 23.1225V43.1526C22.2398 43.8759 22.5284 44.5689 23.0399 45.0803C23.5515 45.5917 24.2446 45.8799 24.968 45.8822H41.355C42.0785 45.8797 42.7716 45.5912 43.2831 45.0796C43.7947 44.5681 44.0832 43.875 44.0857 43.1515V27.4474C44.0857 26.8558 43.9041 26.2642 43.5398 25.8085ZM38.1688 40.8755H28.1542C27.9741 40.8786 27.7951 40.8455 27.628 40.7779C27.4609 40.7104 27.3091 40.6099 27.1818 40.4824C27.0544 40.3549 26.954 40.2031 26.8866 40.0359C26.8192 39.8688 26.7861 39.6898 26.7895 39.5096C26.7895 38.7353 27.381 38.1437 28.1542 38.1437H38.1688C38.942 38.1437 39.5346 38.7353 39.5346 39.5096C39.5346 40.2839 38.942 40.8755 38.1688 40.8755ZM38.1688 35.8677H28.1542C27.9741 35.8708 27.7953 35.8377 27.6282 35.7702C27.4612 35.7028 27.3095 35.6023 27.1821 35.475C27.0548 35.3476 26.9544 35.1959 26.8869 35.0289C26.8194 34.8619 26.7863 34.683 26.7895 34.5029C26.7895 33.7286 27.381 33.137 28.1542 33.137H38.1688C38.942 33.137 39.5346 33.7286 39.5346 34.5029C39.5346 35.2761 38.942 35.8677 38.1688 35.8677ZM38.1688 30.8609H28.1542C27.9741 30.8641 27.7951 30.8309 27.628 30.7634C27.4609 30.6959 27.3091 30.5954 27.1818 30.4679C27.0544 30.3404 26.954 30.1886 26.8866 30.0214C26.8192 29.8543 26.7861 29.6753 26.7895 29.4951C26.7895 28.7219 27.381 28.1303 28.1542 28.1303H38.1688C38.943 28.1303 39.5346 28.7219 39.5346 29.4951C39.5346 30.2694 38.942 30.8609 38.1688 30.8609Z" fill="white"/>
</g>
<defs>
<clipPath id="clip0_2001_501">
<rect width="65.85" height="65.85" fill="white" transform="translate(0.237061 0.211914)"/>
</clipPath>
</defs>
</svg>
