<svg width="118" height="32" viewBox="0 0 118 32" fill="none" xmlns="http://www.w3.org/2000/svg">
<path fill-rule="evenodd" clip-rule="evenodd" d="M14.5309 6.3811L14.2769 10.1908H12.4141L12.244 7.81995H9.28028V13.493H10.5555C10.6405 13.0695 10.7255 12.646 10.8939 12.2178H12.2488V16.1125H10.9736C10.8886 15.689 10.7196 15.2655 10.6352 14.8373H9.35998V20.8599H12.3237L12.5777 18.2351L14.6101 18.3202L14.7801 22.3052H5.04768V20.9396L6.40258 20.6857V7.98998C5.86528 7.91186 5.32894 7.8272 4.7937 7.736V6.3811H14.5309ZM48.9082 27.6344C48.9082 27.211 48.9932 26.8725 48.9932 26.5335L50.0091 26.2795V12.7316C49.5856 12.6466 49.2472 12.6466 48.8242 12.5616V11.4606L52.042 11.0372C52.127 11.4606 52.2959 11.8841 52.3804 12.222C52.4654 12.222 52.4654 12.137 52.5505 12.137C53.3124 11.2056 54.3288 10.9522 55.5142 11.0361C56.9488 11.2061 57.8006 12.137 58.139 13.4069C58.309 13.9999 58.4775 14.5918 58.4775 15.1853C58.5625 16.4605 58.5625 17.7251 58.3925 18.911C58.3075 19.3345 58.1385 19.8424 57.969 20.2659C57.376 21.5411 56.3601 22.2982 55.0052 22.3827C54.2433 22.4677 53.5706 22.3827 52.8884 22.0443H52.7184V26.2779C53.0831 26.3719 53.4503 26.4566 53.8193 26.5319C53.8193 26.8704 53.7343 27.2094 53.7343 27.6328H48.9076L48.9082 27.6344ZM52.7178 20.6065C53.5648 20.9449 54.4112 21.03 55.2576 20.6915C55.4089 20.6251 55.5296 20.5043 55.5961 20.353C55.6811 19.9296 55.85 19.5061 55.85 19.0778C56.0201 17.8026 56.0201 16.453 55.935 15.1832C55.9329 14.7199 55.8469 14.2609 55.6811 13.8283C55.4271 12.8968 54.7496 12.5531 53.8182 12.7273H53.6482C53.0552 12.8124 52.7168 13.2353 52.7168 13.8283V20.6028L52.7178 20.6065ZM84.8954 20.8599L85.9963 21.1139C85.9963 21.5374 85.9963 21.8758 85.9113 22.2988H82.1856V14.6795C82.1856 14.341 82.1006 14.002 82.0155 13.6636C81.9305 13.2401 81.5921 13.0706 81.1686 12.9861C80.7451 12.9016 80.4067 12.9011 80.0677 13.0711C79.7287 13.2411 79.4747 13.4096 79.4747 13.833V20.8599L80.5756 21.1139C80.5756 21.4524 80.4906 21.8758 80.4906 22.2988H75.749V21.1139L76.8499 20.8599V12.8102C76.4265 12.7252 76.088 12.7252 75.665 12.6402V11.4553L78.7978 11.0319L79.0518 12.0478C79.3057 11.8777 79.5597 11.6243 79.8137 11.4548C80.8296 10.7773 82.015 10.6929 83.1159 11.1163C84.0474 11.4548 84.5505 12.2173 84.7248 13.2332C84.8098 13.4871 84.8098 13.8261 84.8098 14.0801V20.4306C84.8948 20.6006 84.8948 20.7691 84.8948 20.8541L84.8954 20.8599ZM19.3575 20.9396L20.4585 21.1936C20.4585 21.6171 20.3734 21.9555 20.3734 22.3785H15.5479C15.5479 22.04 15.5479 21.6165 15.6329 21.1936L16.6488 20.9396C16.7338 20.6857 16.7338 13.3187 16.6488 12.8952C16.3103 12.8102 15.8869 12.8102 15.4639 12.7252V11.535C16.4798 11.365 17.4963 11.2811 18.5967 11.1116L18.8506 12.1275L19.1046 11.8735C20.1205 11.0265 21.3059 10.7726 22.5763 11.1116C23.6773 11.3655 24.2697 12.1275 24.5237 13.2284C24.6087 13.4824 24.6087 13.8214 24.6087 14.0753V20.8498C25.0322 20.9348 25.3706 21.0199 25.7096 21.1038V22.2887H21.9823V14.9334C21.9823 14.6795 21.9823 14.3405 21.8973 14.0865C21.8123 13.409 21.3893 13.0706 20.7964 12.9856C20.2884 12.9006 19.865 12.9856 19.5212 13.409C19.3512 13.5791 19.3512 13.7475 19.3512 14.002V20.9396H19.3575ZM102 12.5621C101.577 12.5621 101.238 12.4771 100.815 12.4771V11.4606L104.457 11.0372C104.627 11.4606 104.795 11.8841 104.795 12.3921V20.9396C105.164 21.015 105.531 21.0996 105.896 21.1936C105.896 21.6171 105.811 21.9555 105.811 22.3785H102.678C102.593 22.1245 102.508 21.7855 102.425 21.4471C102.339 21.5321 102.254 21.6171 102.17 21.6171C100.895 22.802 99.2064 22.633 98.1056 22.125C97.2582 21.7016 96.8305 21.0241 96.6711 20.0927C96.586 19.7542 96.586 19.4997 96.586 19.1613V12.6418C96.1627 12.5568 95.7386 12.5568 95.4012 12.4718V11.4553L98.9576 11.0319C99.0426 11.4553 99.2108 11.7938 99.2108 12.2167V18.6522C99.2108 18.9062 99.2108 19.2452 99.2958 19.4992C99.3808 20.2611 99.8892 20.7744 100.651 20.7744C100.905 20.7744 101.244 20.6894 101.498 20.6894C101.752 20.6044 102.176 20.0964 102.176 19.8424V12.8166C102.006 12.7316 102.006 12.6466 102.006 12.5626L102 12.5621ZM42.8972 17.3887C42.8972 18.3202 43.0672 19.0821 43.4902 19.8446C43.9136 20.4375 44.5061 20.776 45.2685 20.8605C46.0305 20.8605 46.7031 20.6904 47.3854 20.437C47.4704 20.437 47.5554 20.352 47.7238 20.352C47.8938 20.6904 47.9778 21.0294 48.1473 21.3679C47.9773 21.5379 47.7238 21.6219 47.5543 21.7914C46.1994 22.5533 44.7595 22.8073 43.3207 22.2993C42.0455 21.9609 41.2883 21.1144 40.6959 19.9285C40.1029 18.6533 39.9339 17.3037 40.1029 15.9435C40.1879 15.0966 40.3569 14.2501 40.6959 13.4877C41.2888 12.2125 42.2208 11.3708 43.5746 11.1169C44.9285 10.8629 46.1144 11.0319 47.1309 11.9638C47.7238 12.5568 48.0623 13.3187 48.3157 14.0806C48.5697 14.9276 48.6542 15.6895 48.6542 16.5365C48.6542 16.7904 48.4842 17.0444 48.4002 17.3834H42.8956L42.8972 17.3887ZM46.1994 15.9541C46.1994 15.6157 46.1144 15.3612 46.1144 15.1072C46.0294 14.4297 45.9444 13.832 45.6065 13.2443C45.268 12.5669 44.675 12.3974 43.9976 12.6514C43.7436 12.7364 43.5741 12.9053 43.4046 13.1593C43.0662 14.0907 42.8967 15.0222 42.8116 15.9541V16.2081L46.1994 15.9541ZM94.7184 17.3887C92.8552 17.3887 91.077 17.4737 89.2135 17.4737C89.1285 17.8972 89.2135 18.2357 89.2985 18.5747C89.3838 19.1676 89.6371 19.6756 89.9763 20.0996C90.3995 20.6075 90.9079 20.8615 91.5853 20.8615C92.2628 20.8615 92.9402 20.7765 93.6177 20.5231C93.7877 20.438 93.8709 20.438 94.0409 20.353C94.211 20.6915 94.2951 21.0305 94.4642 21.3689C94.3792 21.3689 94.3792 21.454 94.2942 21.454C93.1093 22.3009 91.8386 22.5549 90.3995 22.4699C88.7061 22.2998 87.5207 21.285 86.9277 19.6751C86.0808 17.6427 86.1658 15.6104 87.0127 13.5785C87.5207 12.3033 88.4473 11.3772 89.8912 11.1227C90.9929 10.8687 92.0927 10.9527 93.0243 11.6307C93.7018 12.1386 94.1251 12.8155 94.4589 13.4935C94.7972 14.4249 94.9672 15.5259 94.9672 16.5418C94.9672 16.7958 94.7972 17.0497 94.7131 17.3887H94.7184ZM92.601 15.9541C92.601 15.1922 92.516 14.5195 92.2628 13.8373C92.1777 13.4988 92.0086 13.1598 91.7553 12.9059C91.3311 12.3129 89.9763 12.4824 89.808 13.2443C89.638 13.8373 89.4688 14.4292 89.3838 15.1072C89.2991 15.4456 89.2991 15.7846 89.2991 16.2081L92.601 15.9541ZM75.2426 17.3887C73.3798 17.3887 71.6014 17.4737 69.738 17.4737C69.738 18.4896 69.9081 19.3366 70.5 20.0985C70.9234 20.6065 71.4314 20.8605 72.0249 20.8605C72.7023 20.8605 73.4595 20.7754 74.0572 20.522C74.2273 20.437 74.3112 20.437 74.4807 20.352C74.6507 20.6904 74.7347 21.0294 74.9042 21.3679C74.7342 21.4529 74.6502 21.5379 74.5657 21.6219C73.2905 22.3838 71.9409 22.6378 70.501 22.3838C69.1461 22.1298 68.2147 21.2829 67.6223 20.0975C67.0293 18.8223 66.8603 17.5577 66.9448 16.2028C67.0298 15.2714 67.1988 14.4244 67.5378 13.578C67.9613 12.5621 68.6387 11.7996 69.6546 11.3767C70.8395 10.8687 72.0254 10.8687 73.2108 11.4617C73.9728 11.8852 74.486 12.5626 74.8197 13.3246C75.2432 14.3405 75.4127 15.4414 75.4127 16.5423C75.4977 16.7963 75.3277 17.0497 75.2426 17.3887ZM73.1258 15.9541C73.1258 15.6157 73.0408 15.2767 73.0408 14.9382C72.9558 14.3453 72.8708 13.7533 72.5328 13.2449C72.1094 12.5674 71.5169 12.3134 70.8395 12.6519C70.6695 12.7369 70.501 12.8219 70.416 13.0754C70.0775 13.7528 69.9081 14.51 69.823 15.2767C69.823 15.5307 69.738 15.7846 69.738 16.1236C70.8389 16.1236 71.9399 16.0391 73.1258 15.9541ZM35.6997 11.1227L35.9537 12.1386C36.1238 12.0536 36.2077 11.9686 36.3772 11.8846C37.1357 11.4668 37.9713 11.2076 38.833 11.1227C39.2565 11.0377 39.595 11.2077 39.8489 11.5462L39.511 14.511C38.918 14.511 38.3261 14.426 37.7326 14.426C37.6476 13.9181 37.5626 13.4101 37.5626 12.8171C37.1391 12.8171 36.8007 12.9872 36.4617 13.2406V20.8599L37.5626 21.1139C37.5626 21.4524 37.5626 21.8758 37.4776 22.2148H32.7365V21.115L33.7524 20.861V12.8166C33.3289 12.7316 32.9905 12.7316 32.5675 12.6466V11.4617C33.5834 11.4617 34.5994 11.2911 35.6997 11.1227ZM106.403 22.2998C106.403 21.8764 106.403 21.5379 106.488 21.1989L107.504 20.9449V12.9006C107.166 12.8155 106.742 12.8155 106.319 12.7305V11.5457L109.537 11.1222L109.791 12.0536L111.146 11.4606C111.654 11.2906 112.077 11.2067 112.581 11.1222C113.004 11.0372 113.343 11.1222 113.597 11.5457L113.258 14.5094C112.665 14.5094 112.074 14.4244 111.479 14.4244C111.394 13.9165 111.309 13.3235 111.309 12.8155L110.209 13.239V20.9396C110.573 21.0336 110.941 21.1182 111.309 21.1936C111.309 21.5321 111.224 21.9555 111.224 22.2945H106.398L106.403 22.2998ZM64.319 12.8166L63.218 13.2401V20.9396L64.319 21.1936C64.319 21.6171 64.2339 21.9555 64.2339 22.2945H59.4923V21.1936L60.5082 20.9396V12.9006C60.0848 12.8155 59.7463 12.8155 59.3234 12.7305V11.5457L62.5411 11.1222L62.7951 12.0536L63.7265 11.5457C64.3198 11.2876 64.9473 11.1166 65.5894 11.0377C66.0973 11.0377 66.4363 11.2077 66.6903 11.5457L66.3518 14.5094C65.7589 14.5094 65.167 14.4244 64.5735 14.4244L64.3195 12.8155L64.319 12.8166ZM29.6032 9.00588V11.2922H31.5506C31.4656 11.8002 31.4656 12.2236 31.4656 12.7268C30.8726 12.7268 30.2807 12.8118 29.6872 12.8968V20.1001C29.7722 20.5236 30.0256 20.8621 30.5341 20.8621H31.635C31.635 21.2855 31.7201 21.624 31.7201 22.0469C31.4661 22.217 31.1271 22.3009 30.7886 22.3854C30.1112 22.5554 29.4337 22.5554 28.7563 22.4704C27.7404 22.3004 27.0629 21.6235 26.8934 20.5231V12.9006C26.47 12.8155 26.0465 12.7305 25.6182 12.7305C25.6182 12.3071 25.6182 11.7991 25.7032 11.3756C26.2112 11.3756 26.6347 11.2906 27.1378 11.2906L27.7308 9.17378L29.5937 9.00376L29.6032 9.00588Z" fill="white"/>
<path d="M53.7773 25.9342C53.7773 26.1467 53.5648 26.3061 53.3522 26.3061C53.0866 26.3061 52.874 26.1467 52.874 25.9342C52.874 25.7217 53.0866 25.5623 53.3522 25.5623C53.6179 25.5623 53.7773 25.7217 53.7773 25.9342ZM53.0334 25.9342C53.0334 26.0936 53.1928 26.1999 53.3522 26.1999C53.5116 26.1999 53.671 26.0936 53.671 25.9342C53.671 25.7748 53.5116 25.6685 53.3522 25.6685C53.1397 25.6685 53.0334 25.7748 53.0334 25.9342ZM53.2991 26.1467H53.1928V25.7748H53.3522C53.4585 25.7748 53.4585 25.7748 53.5116 25.8279L53.5648 25.8811C53.5648 25.9342 53.5116 25.9342 53.4585 25.9873C53.5116 25.9873 53.5116 26.0405 53.5648 26.0936C53.5648 26.1467 53.5648 26.1467 53.6179 26.1999H53.4585C53.4585 26.1999 53.4585 26.1467 53.4054 26.1467C53.4054 26.0936 53.3522 26.0936 53.3522 26.0936H53.2991V26.1467ZM53.2991 25.9342C53.4054 25.9342 53.4054 25.9342 53.4054 25.8811C53.4054 25.8279 53.3522 25.8279 53.3522 25.8279H53.2991V25.9342Z" fill="#9D9E9E"/>
</svg>
