<svg width="25" height="22" viewBox="0 0 25 22" fill="none" xmlns="http://www.w3.org/2000/svg">
<g clip-path="url(#clip0_2001_552)">
<path d="M18.3727 7.04071C17.9562 6.80242 17.4206 6.80242 16.944 7.04071L13.609 9.00609L11.3452 10.2566L8.07026 12.222C7.65274 12.4603 7.1171 12.4603 6.64052 12.222L4.07941 10.6741C3.86163 10.5458 3.68113 10.3628 3.55575 10.1433C3.43037 9.92381 3.36446 9.67538 3.36454 9.42259V6.44499C3.36454 5.96841 3.60283 5.49183 4.07941 5.19447L6.64154 3.70465C7.05906 3.46636 7.5947 3.46636 8.07128 3.70465L10.6324 5.25252C11.0489 5.49081 11.3462 5.96739 11.3462 6.50303V8.46841L13.61 7.15884V5.13439C13.61 4.65781 13.3717 4.18225 12.8951 3.88388L8.12831 1.08448C7.71079 0.846189 7.17515 0.846189 6.69857 1.08448L1.81668 3.94396C1.3401 4.18225 1.10181 4.65781 1.10181 5.13541V10.7332C1.10181 11.2098 1.3401 11.6863 1.81668 11.9837L6.64052 14.7831C7.05804 15.0214 7.59368 15.0214 8.07026 14.7831L11.3452 12.8768L13.609 11.5672L16.8839 9.66088C17.3015 9.42259 17.8371 9.42259 18.3137 9.66088L20.8748 11.1497C21.2923 11.388 21.5897 11.8646 21.5897 12.4012V15.3788C21.5897 15.8554 21.3514 16.332 20.8748 16.6293L18.3738 18.1181C17.9562 18.3564 17.4206 18.3564 16.944 18.1181L14.3829 16.6293C14.1653 16.5011 13.9849 16.3183 13.8595 16.099C13.7341 15.8797 13.6681 15.6314 13.668 15.3788V13.4725L11.4053 14.7831V16.7485C11.4053 17.2251 11.6436 17.7016 12.1202 17.999L16.944 20.7984C17.3615 21.0367 17.8972 21.0367 18.3738 20.7984L23.1976 17.999C23.6151 17.7607 23.9125 17.2841 23.9125 16.7485V11.0906C23.9125 10.614 23.6742 10.1375 23.1976 9.84011L18.3738 7.03969L18.3727 7.04071Z" fill="url(#paint0_linear_2001_552)"/>
</g>
<defs>
<linearGradient id="paint0_linear_2001_552" x1="9.45214" y1="4.86555" x2="12.5071" y2="20.9776" gradientUnits="userSpaceOnUse">
<stop stop-color="#AD00FF"/>
<stop offset="1" stop-color="#CB5EFF"/>
</linearGradient>
<clipPath id="clip0_2001_552">
<rect width="24.44" height="20.3667" fill="white" transform="translate(0.287109 0.791992)"/>
</clipPath>
</defs>
</svg>
