<svg width="118" height="20" viewBox="0 0 118 20" fill="none" xmlns="http://www.w3.org/2000/svg">
<g clip-path="url(#clip0_2001_437)">
<path d="M17.9314 11.8665C17.5809 12.0758 17.1718 12.1138 16.8602 11.9426C16.4706 11.7144 16.2369 11.2008 16.2369 10.497V8.34758C16.2369 7.32043 15.8278 6.57859 15.1267 6.38838C13.9385 6.046 13.0425 7.4726 12.7114 8.00519L10.6077 11.2959V7.24435C10.5883 6.3123 10.2766 5.76068 9.69228 5.58949C9.30271 5.47536 8.71836 5.53243 8.1535 6.36936L3.4593 13.7116C2.836 12.5513 2.50487 11.2578 2.50487 9.94537C2.50487 5.51341 6.14727 1.91837 10.6077 1.91837C15.0682 1.91837 18.7106 5.51341 18.7106 9.94537V9.96438V9.98338C18.7496 10.8393 18.4769 11.5242 17.9314 11.8665ZM20.5026 9.94537V9.92637V9.90736C20.4831 4.5243 16.0421 0.130371 10.6077 0.130371C5.15388 0.130371 0.712891 4.5243 0.712891 9.94537C0.712891 15.3475 5.15388 19.7604 10.6077 19.7604C13.1204 19.7604 15.4967 18.8283 17.3276 17.1354C17.6977 16.793 17.7172 16.2414 17.3666 15.8801C17.0355 15.5186 16.4706 15.4996 16.1006 15.8229C16.1006 15.8229 16.1006 15.8229 16.081 15.842C14.6008 17.2115 12.6139 17.9914 10.5688 17.9914C8.17298 17.9914 6.0304 16.9643 4.55006 15.3284L8.7768 8.70898V11.7714C8.7768 13.2361 9.36114 13.7116 9.84807 13.8448C10.3351 13.9779 11.0752 13.8828 11.8738 12.6464L14.1917 8.97528C14.2696 8.86115 14.3281 8.74702 14.406 8.67094V10.5351C14.406 11.9045 14.9708 13.0078 15.9447 13.5404C16.8213 14.0349 17.9315 13.9779 18.8469 13.4263C19.9767 12.7035 20.5805 11.448 20.5026 9.94537ZM34.293 6.59762C34.5268 6.73077 34.7411 7.05413 34.7411 7.33944C34.7411 7.79596 34.3515 8.17639 33.9035 8.17639C33.7866 8.17639 33.6892 8.13834 33.5918 8.11933C33.0659 7.7389 32.4037 7.49162 31.7024 7.49162C30.0468 7.49162 28.9171 8.80409 28.9171 10.44C28.9171 12.0758 30.0663 13.3692 31.7024 13.3692C32.5205 13.3692 33.2607 13.0458 33.8061 12.5322C33.9425 12.4371 34.1177 12.3801 34.293 12.3801C34.741 12.3801 35.0916 12.7225 35.0916 13.16C35.0916 13.4453 34.9163 13.6926 34.7021 13.8257C33.9035 14.4915 32.8322 14.929 31.722 14.929C29.1898 14.929 27.1251 12.8937 27.1251 10.3829C27.1251 7.87204 29.1898 5.83677 31.722 5.83677C32.6569 5.81774 33.5529 6.10307 34.293 6.59762ZM38.9288 8.49975C40.6623 8.49975 42.1037 9.92637 42.1037 11.6953C42.1037 13.4453 40.6429 14.948 38.9288 14.948C37.1173 14.948 35.6175 13.4643 35.6175 11.6953C35.6175 9.92637 37.1173 8.49975 38.9288 8.49975ZM38.9093 13.3692C39.669 13.3692 40.3118 12.6654 40.3118 11.7144C40.3118 10.7633 39.669 10.1546 38.9093 10.1546C38.0913 10.1546 37.4095 10.7442 37.4095 11.7144C37.4095 12.6464 38.0913 13.3692 38.9093 13.3692ZM43.1945 13.9589V9.46988C43.1945 8.97528 43.5841 8.57583 44.0905 8.57583C44.5775 8.57583 44.9865 8.97528 44.9865 9.46988V13.9589C44.9865 14.4534 44.5775 14.8529 44.0905 14.8529C43.6035 14.8529 43.1945 14.4344 43.1945 13.9589ZM43.0582 6.88294C43.0582 6.29328 43.5257 5.83677 44.0905 5.83677C44.6748 5.83677 45.1423 6.3123 45.1423 6.88294C45.1423 7.45357 44.6748 7.91009 44.0905 7.91009C43.5061 7.89106 43.0582 7.43456 43.0582 6.88294ZM48.4146 11.5242V13.9589C48.4146 14.4534 48.0056 14.8529 47.5187 14.8529C47.0317 14.8529 46.6226 14.4534 46.6226 13.9589V9.26064C46.6226 8.88018 46.9343 8.57583 47.3239 8.57583C47.7134 8.57583 48.0056 8.8992 48.0056 9.26064C48.7263 8.59485 49.3691 8.49975 49.9729 8.49975C51.7648 8.49975 52.5634 9.81224 52.5634 11.3149V13.9589C52.5634 14.4534 52.1544 14.8529 51.6675 14.8529C51.1805 14.8529 50.7714 14.4534 50.7714 13.9589V11.5242C50.7714 10.7633 50.6741 10.1166 49.5443 10.1166C48.7457 10.1166 48.4146 10.7633 48.4146 11.5242ZM58.3679 12.4562C58.1537 12.4562 58.0173 12.3611 57.9004 12.2279L55.8163 10.0215V13.9589C55.8163 14.4534 55.4072 14.8529 54.9202 14.8529C54.4333 14.8529 54.0243 14.4534 54.0243 13.9589V6.16013C54.0828 6.02698 54.2191 5.93187 54.3554 5.93187C54.5112 5.93187 54.6476 6.06502 54.745 6.16013L58.0758 9.81224C58.1731 9.92637 58.29 9.98338 58.3679 9.98338C58.4263 9.98338 58.5627 9.92637 58.66 9.81224L61.9908 6.16013C62.0882 6.06502 62.205 5.93187 62.3804 5.93187C62.5362 5.93187 62.6726 6.02698 62.7115 6.16013V13.9589C62.7115 14.4534 62.3219 14.8529 61.8155 14.8529C61.3285 14.8529 60.9195 14.4534 60.9195 13.9589V10.0215L58.8354 12.2279C58.6796 12.3611 58.5432 12.4562 58.3679 12.4562ZM66.9772 13.3692C67.7758 13.3692 68.4575 12.6654 68.4575 11.7144C68.4575 10.7633 67.7563 10.1356 66.9772 10.1356C66.198 10.1356 65.5553 10.7823 65.5553 11.7144C65.5553 12.6274 66.1786 13.3692 66.9772 13.3692ZM68.886 14.1681L68.8471 13.9589C68.4964 14.6246 67.3862 14.929 66.685 14.929C65.0099 14.929 63.7633 13.4453 63.7633 11.6763C63.7633 9.92637 65.0293 8.48072 66.7824 8.48072C67.0746 8.48072 68.0874 8.55682 68.8666 9.45078L68.9055 9.24155C68.9055 8.86115 69.1977 8.55682 69.5872 8.55682C69.9768 8.55682 70.2885 8.88018 70.2885 9.24155V14.149C70.2885 14.5295 69.9768 14.8339 69.5872 14.8339C69.1782 14.8529 68.886 14.5295 68.886 14.1681ZM75.2164 10.1166H75.0216C73.8919 10.1736 73.6776 10.8013 73.6776 11.5242V13.9589C73.6776 14.4534 73.2686 14.8529 72.7817 14.8529C72.2947 14.8529 71.8856 14.4534 71.8856 13.9589V9.26064C71.8856 8.88018 72.1973 8.57583 72.5869 8.57583C72.9764 8.57583 73.2686 8.8992 73.2686 9.26064C73.9308 8.65192 74.4763 8.51877 75.0216 8.49975H75.197C75.6254 8.49975 76.015 8.86116 76.015 9.31766C76.0344 9.73613 75.6449 10.1166 75.2164 10.1166ZM82.1311 13.5404C82.209 13.6736 82.2674 13.8067 82.2674 13.9589C82.2674 14.4154 81.8389 14.8339 81.3715 14.8339C81.0598 14.8339 80.7871 14.6056 80.5729 14.3393L78.5082 11.9997V13.9398C78.5082 14.4344 78.0992 14.8339 77.6122 14.8339C77.1253 14.8339 76.7162 14.4344 76.7162 13.9398V6.80686C76.7162 6.3123 77.1058 5.91285 77.6122 5.91285C78.1186 5.91285 78.5082 6.3123 78.5082 6.80686V11.2578L80.5729 9.03235C80.7871 8.80409 81.0404 8.55682 81.3519 8.55682C81.8 8.55682 82.209 8.95627 82.209 9.41277C82.209 9.5459 82.1701 9.69812 82.0922 9.81224L80.456 11.5622L82.1311 13.5404ZM85.6372 10.1356C85.1502 10.1356 84.3516 10.3829 84.3516 11.1247H86.9422C86.9227 10.3829 86.1046 10.1356 85.6372 10.1356ZM87.9745 12.247H84.3516C84.3516 13.2931 85.3839 13.4643 85.832 13.4643C86.1631 13.4643 86.6305 13.4072 87.0007 13.2361C87.1175 13.16 87.2928 13.1029 87.4681 13.1029C87.8577 13.1029 88.1888 13.4263 88.1888 13.8257C88.1888 14.092 88.0135 14.3203 87.7992 14.4534C87.2538 14.8529 86.5331 14.948 85.8514 14.948C84.0399 14.948 82.5402 13.9969 82.5402 11.7714C82.5402 10.0215 83.4556 8.49975 85.5982 8.49975C87.3318 8.49975 88.6367 9.60301 88.6757 11.5622C88.6757 11.9236 88.364 12.247 87.9745 12.247ZM92.9605 14.929H92.4742C91.1108 14.929 90.3122 14.3393 90.3122 12.266V10.1166H89.8444C89.4159 10.1166 89.0458 9.73613 89.0458 9.31766C89.0458 8.86116 89.4354 8.49975 89.8444 8.49975H90.3122V6.8449C90.3122 6.35034 90.7013 5.9509 91.2081 5.9509C91.6953 5.9509 92.1039 6.35034 92.1039 6.8449V8.49975H92.8436C93.2728 8.49975 93.6422 8.86116 93.6422 9.31766C93.6422 9.73613 93.2532 10.1166 92.8436 10.1166H92.1039V11.9236C92.1039 13.122 92.1619 13.3692 92.708 13.3692H92.9605C93.3897 13.3692 93.7591 13.7116 93.7591 14.149C93.7591 14.5675 93.3897 14.929 92.9605 14.929ZM101.629 6.59762C101.863 6.73077 102.077 7.05413 102.077 7.33944C102.077 7.79596 101.687 8.17639 101.239 8.17639C101.122 8.17639 101.025 8.13834 100.928 8.11933C100.401 7.7389 99.7391 7.49162 99.0378 7.49162C97.3826 7.49162 96.253 8.80409 96.253 10.44C96.253 12.0758 97.4022 13.3692 99.0378 13.3692C99.856 13.3692 100.597 13.0458 101.142 12.5322C101.278 12.4371 101.453 12.3801 101.629 12.3801C102.077 12.3801 102.428 12.7225 102.428 13.16C102.428 13.4453 102.252 13.6926 102.038 13.8257C101.239 14.4915 100.167 14.929 99.0574 14.929C96.5251 14.929 94.4604 12.8937 94.4604 10.3829C94.4604 7.87204 96.5251 5.83677 99.0574 5.83677C99.9925 5.81774 100.908 6.10307 101.629 6.59762ZM106.167 13.3692C106.966 13.3692 107.647 12.6654 107.647 11.7144C107.647 10.7633 106.946 10.1356 106.167 10.1356C105.368 10.1356 104.745 10.7823 104.745 11.7144C104.745 12.6274 105.388 13.3692 106.167 13.3692ZM108.076 14.1681L108.037 13.9589C107.687 14.6246 106.576 14.929 105.875 14.929C104.2 14.929 102.953 13.4453 102.953 11.6763C102.953 9.92637 104.219 8.48072 105.973 8.48072C106.264 8.48072 107.277 8.55682 108.056 9.45078L108.095 9.24155C108.095 8.86115 108.388 8.55682 108.777 8.55682C109.167 8.55682 109.478 8.88018 109.478 9.24155V14.149C109.478 14.5295 109.167 14.8339 108.777 14.8339C108.368 14.8529 108.076 14.5295 108.076 14.1681ZM114.367 13.3692C115.166 13.3692 115.789 12.6274 115.789 11.7144C115.789 10.7633 115.146 10.1356 114.367 10.1356C113.568 10.1356 112.887 10.7633 112.887 11.7144C112.887 12.6654 113.568 13.3692 114.367 13.3692ZM112.887 14.4154V16.6409C112.887 17.1354 112.478 17.5349 111.991 17.5349C111.504 17.5349 111.095 17.1354 111.095 16.6409V9.26064C111.095 8.88018 111.406 8.57583 111.796 8.57583C112.185 8.57583 112.478 8.8992 112.478 9.33666C113.14 8.67094 113.958 8.49975 114.581 8.49975C116.315 8.49975 117.601 9.92637 117.601 11.6953C117.601 13.4453 116.374 14.948 114.679 14.948C114.153 14.929 113.374 14.7768 112.887 14.4154Z" fill="white"/>
</g>
<defs>
<clipPath id="clip0_2001_437">
<rect width="116.888" height="19.63" fill="white" transform="translate(0.712891 0.130371)"/>
</clipPath>
</defs>
</svg>
