<svg width="118" height="22" viewBox="0 0 118 22" fill="none" xmlns="http://www.w3.org/2000/svg">
<path d="M75.236 19.5519C73.6974 19.5519 72.5682 19.2584 71.8201 18.6712C71.1849 18.1959 70.832 17.455 70.832 16.6581H73.8951C74.0362 17.2452 74.2903 17.5808 75.2783 17.5808C76.3652 17.5808 76.8169 16.9936 76.8169 15.6655V14.4911H76.7604C76.3793 15.4558 75.3913 16.0569 74.3326 15.9591C71.8059 15.9591 70.5215 14.5331 70.5215 11.751C70.465 10.5627 70.8744 9.41626 71.6648 8.52155C72.3706 7.79457 73.3587 7.38915 74.389 7.40312C75.3772 7.30526 76.337 7.80855 76.8028 8.67537H76.8593V7.59885H79.88V15.3859C79.88 16.8118 79.527 17.8324 78.7931 18.4755C78.0026 19.2025 76.8593 19.5519 75.236 19.5519ZM75.3348 9.51417C74.3467 9.51417 73.7539 10.353 73.7539 11.765C73.7539 13.2329 74.2903 14.0158 75.2783 14.0158C76.1252 14.0158 76.8028 13.3308 76.8028 12.492V11.3735C76.8028 10.1992 76.2664 9.51417 75.3348 9.51417ZM46.4689 16.6021C45.382 16.7 44.3093 16.4204 43.4059 15.8192C42.8131 15.3159 42.4602 14.589 42.4178 13.8061H45.2409C45.2974 14.3933 45.6926 14.6868 46.4266 14.6868C47.1183 14.6868 47.5558 14.4352 47.5558 13.9598C47.5558 13.5684 47.3017 13.3727 46.6665 13.2749L45.2268 13.0791C43.5047 12.8834 42.559 11.9048 42.559 10.3809C42.5448 9.59803 42.8696 8.85706 43.4482 8.32582C45.1562 7.15148 47.4147 7.09556 49.1791 8.18602C49.7719 8.67537 50.1107 9.38831 50.1107 10.1433H47.3299C47.3159 9.63996 46.8924 9.24855 46.3984 9.26252H46.3419C45.5515 9.26252 45.3962 9.612 45.3962 9.94751C45.3962 10.2831 45.5373 10.5347 46.2431 10.6326L47.7817 10.8283C48.4592 10.8563 49.1085 11.1219 49.6167 11.5552C50.1107 12.0306 50.3648 12.7017 50.3083 13.3727C50.4354 15.3859 48.8968 16.6161 46.4689 16.6021ZM37.5763 16.5602C34.7109 16.5602 33.0735 14.8966 33.0735 11.9048C33.0311 10.7025 33.4546 9.52815 34.2591 8.61938C35.1343 7.76661 36.3483 7.31924 37.5763 7.38915C39.1149 7.38915 40.3005 7.82253 41.0345 8.66131C41.7826 9.612 42.1637 10.7863 42.1214 11.9887V12.6737H36.2353C36.3341 13.9459 36.7294 14.5331 37.6751 14.5331C38.2397 14.6309 38.7902 14.2675 38.9172 13.6942H42.0367C41.825 15.5256 40.2864 16.5602 37.5763 16.5602ZM37.5763 9.26252C36.7294 9.26252 36.3341 9.84968 36.2353 11.024H38.9031V10.9262C38.8043 9.80775 38.3668 9.26252 37.5763 9.26252ZM94.2633 16.5183C93.3037 16.5742 92.372 16.2107 91.6945 15.5396C91.0455 14.7987 90.7063 13.8341 90.7488 12.8414C90.6924 11.8768 91.0308 10.9262 91.6945 10.1992C92.3859 9.54212 93.3037 9.19256 94.2633 9.2206C96.4373 9.2206 97.7785 10.5906 97.7785 12.8414C97.7785 15.0923 96.3809 16.5183 94.2633 16.5183ZM94.2633 10.6466C93.1198 10.6466 92.8804 11.8768 92.8804 12.8973C92.8804 14.4212 93.374 15.1482 94.2633 15.1482C95.1525 15.1482 95.647 14.3653 95.647 12.8973C95.647 11.4295 95.1525 10.6466 94.2633 10.6466ZM87.1919 16.5183C86.2316 16.5742 85.2998 16.2107 84.6223 15.5396C84.002 14.7987 83.6767 13.862 83.7331 12.8973C83.7331 10.6466 85.0743 9.2765 87.2483 9.2765C89.2246 9.2765 90.4097 10.2551 90.466 11.9188H88.4481C88.4056 11.3316 88.1514 10.6466 87.2622 10.6466C86.0199 10.6466 85.8793 12.0585 85.8793 12.8973C85.8793 14.4212 86.3305 15.1482 87.2622 15.1482C87.9397 15.1482 88.4906 14.617 88.5045 13.9459C88.5045 13.9319 88.5045 13.9319 88.5045 13.9179V13.7781H90.4808C90.4808 14.575 90.1416 15.316 89.5351 15.8472C88.829 16.2946 88.0247 16.5322 87.1919 16.5183ZM53.9783 16.4624C53.2161 16.5322 52.4538 16.3085 51.8469 15.8332C51.254 15.2181 50.9435 14.3793 51 13.5265V5.20823H54.0771V7.61283H55.9121V9.76582H54.1335V12.9533C54.1335 13.876 54.43 14.2255 55.2769 14.2255C55.4745 14.2394 55.6721 14.2115 55.8697 14.1696V16.3644C55.2205 16.4064 54.6276 16.4624 53.9783 16.4624ZM105.034 16.3225H102.959V12.2543C103.001 11.8628 102.93 11.4854 102.761 11.1359C102.563 10.8423 102.225 10.6885 101.872 10.7444C101.025 10.7444 100.53 11.3315 100.53 12.3102V16.3225H98.456V9.41626H100.431V10.5487C100.841 9.73787 101.688 9.23457 102.606 9.2765C103.791 9.2765 104.483 9.76582 104.78 10.7025H104.822C105.217 9.80775 106.121 9.24855 107.094 9.2765C108.675 9.2765 109.423 10.1153 109.423 11.8209V16.3225H107.348V12.2683C107.391 11.8768 107.321 11.4993 107.151 11.1499C106.953 10.8563 106.614 10.7025 106.261 10.7584C105.415 10.7584 104.921 11.3456 104.921 12.3242L105.034 16.3225ZM64.0143 16.3225H60.8525V7.61283H63.9155V9.02485H63.972C64.5224 7.99029 65.6517 7.36119 66.8374 7.45904C67.9666 7.45904 68.7712 7.75263 69.2652 8.3398C69.7734 9.09473 69.9992 9.98944 69.9004 10.8842V16.3225H66.7385V11.3735C66.7809 10.9401 66.6962 10.4927 66.4845 10.1013C66.2586 9.79377 65.8775 9.62598 65.4964 9.66791C64.5648 9.66791 64.0708 10.2551 64.0708 11.4295L64.0143 16.3225ZM18.2383 16.3225H15.0764V7.61283H18.1395V9.02485H18.1818C18.7323 7.99029 19.8615 7.36119 21.0472 7.45904C22.1765 7.45904 22.981 7.75263 23.475 8.3398C23.9832 9.09473 24.209 9.98944 24.1244 10.8842V16.3225H20.9625V11.3735C21.0049 10.9401 20.9202 10.4927 20.7084 10.1013C20.4826 9.79377 20.1015 9.62598 19.7204 9.66791C18.7747 9.66791 18.2806 10.2551 18.2806 11.4295L18.2383 16.3225ZM83.098 16.3225H80.9245V14.2675H83.098V16.3225ZM59.8079 16.3225H56.6461V7.61283H59.8079V16.3225ZM30.3492 16.3225H27.0886L23.9691 7.61283H27.1451L28.2742 11.3875C28.5707 12.464 28.8248 13.5964 28.8248 13.6383H28.8813C29.0365 12.8973 29.1776 12.1704 29.3752 11.4295L30.5186 7.65477H33.5816L30.3492 16.3225ZM13.8907 16.3225H10.6301V3.99194H13.8907V16.3225Z" fill="white"/>
<path d="M56.5474 6.67628L59.808 6.08911V2.90161L56.5474 3.48878V6.67628Z" fill="#FF883D"/>
</svg>
