<svg width="58" height="58" viewBox="0 0 58 58" fill="none" xmlns="http://www.w3.org/2000/svg">
<path d="M40.0543 2.04102H18.3198C9.58993 2.04102 2.51294 9.118 2.51294 17.8479V39.5824C2.51294 48.3123 9.58993 55.3893 18.3198 55.3893H40.0543C48.7842 55.3893 55.8612 48.3123 55.8612 39.5824V17.8479C55.8612 9.118 48.7842 2.04102 40.0543 2.04102Z" fill="url(#paint0_linear_2001_279)"/>
<path d="M29.202 2.14966C14.6735 2.14966 2.73535 14.0888 2.73535 28.6163C2.73535 43.1448 14.6735 55.083 29.202 55.083C43.7305 55.083 55.6687 43.1448 55.6687 28.6163C55.6687 14.0888 43.7582 2.14966 29.202 2.14966Z" fill="url(#paint1_linear_2001_279)"/>
<path d="M15.1516 18.9595H16.672V39.3731H29.117V40.7246H15.1516V18.9595ZM18.2488 18.9595H19.7406V36.5851H29.117V37.9366H18.2488V18.9595ZM31.9326 18.9595H39.8163C44.8281 18.9595 47.5311 21.6911 47.5311 25.9145C47.5311 30.4758 44.5742 32.8399 39.3371 32.8399H36.5215V40.7236H35.0298V31.5171H39.1692C43.7295 31.5171 45.982 29.6874 45.982 25.9145C45.982 22.3668 43.7581 20.3396 39.4498 20.3396H33.453V40.7522H31.9316L31.9326 18.9595ZM35.0298 21.6911H39.0556C42.6596 21.6911 44.4052 22.9853 44.4052 25.8582C44.4052 28.7854 42.7159 30.053 39.0556 30.053H35.0298V21.6911ZM39.0556 28.7578C42.1528 28.7578 42.9135 27.6039 42.9135 25.8295C42.9135 24.1115 42.0125 23.0139 39.0556 23.0139H36.5502V28.7578H39.0556Z" fill="white"/>
<g opacity="0.2">
<path fill-rule="evenodd" clip-rule="evenodd" d="M27.5679 15.9185C40.6046 19.2972 47.7562 21.9438 48.6009 25.8007C48.6009 25.1536 48.6572 24.3653 48.5723 23.7458C48.5192 23.1195 48.3147 22.5155 47.9764 21.9857C47.638 21.456 47.176 21.0165 46.63 20.705L34.9171 13.9189C34.328 13.5731 33.6574 13.3909 32.9743 13.3909C32.2913 13.3909 31.6206 13.5731 31.0316 13.9189L27.5679 15.9185Z" fill="white"/>
<path fill-rule="evenodd" clip-rule="evenodd" d="M48.6009 33.0936C49.5019 25.1249 44.4901 23.5482 34.7481 20.8738C27.4838 18.8753 16.2214 16.2563 9.94312 14.6519C10.4213 18.5374 14.0529 21.6059 17.6855 22.4506C26.3576 24.4778 45.8416 26.5337 48.6009 33.0936ZM33.8184 36.247C27.5965 35.0082 21.2895 34.3038 15.1515 33.5994C15.9685 36.1344 17.32 39.034 23.1765 39.6534C28.0756 40.1602 40.7735 41.3714 41.7871 43.8205C47.8965 39.8787 37.6763 37.0068 33.8184 36.247ZM39.6472 45.0317C39.7312 43.3424 26.977 42.3011 21.3458 42.1885L31.0038 47.7634C32.1864 48.4668 33.6782 48.4668 34.917 47.7634L39.6472 45.0317Z" fill="white"/>
<path fill-rule="evenodd" clip-rule="evenodd" d="M46.4896 41.09C46.6862 37.5987 40.886 35.9656 36.6063 34.7831C31.2566 33.2913 24.2176 31.9388 19.4598 31.0665C15.2364 30.3058 12.6173 27.4625 11.0969 23.5483C14.2504 24.2241 17.4039 24.9285 20.586 25.5193C24.1327 26.1673 30.4683 27.5465 34.1849 28.4198C39.8447 29.7437 44.7152 31.4034 47.0803 33.9661C49.2765 36.3312 49.1915 39.2031 46.4886 41.0891L46.4896 41.09Z" fill="white"/>
</g>
<defs>
<linearGradient id="paint0_linear_2001_279" x1="28.4708" y1="38.1252" x2="31.0711" y2="4.32215" gradientUnits="userSpaceOnUse">
<stop stop-color="#0058A9"/>
<stop offset="1" stop-color="#00B8B0"/>
</linearGradient>
<linearGradient id="paint1_linear_2001_279" x1="28.4907" y1="37.9543" x2="31.0712" y2="4.41301" gradientUnits="userSpaceOnUse">
<stop stop-color="#0058A9"/>
<stop offset="1" stop-color="#00B8B0"/>
</linearGradient>
</defs>
</svg>
