<svg width="58" height="58" viewBox="0 0 58 58" fill="none" xmlns="http://www.w3.org/2000/svg">
<g clip-path="url(#clip0_2001_252)">
<path d="M40.8193 0.0651855H17.4748C8.09828 0.0651855 0.49707 7.6664 0.49707 17.043V40.3874C0.49707 49.764 8.09828 57.3652 17.4748 57.3652H40.8193C50.1959 57.3652 57.7971 49.764 57.7971 40.3874V17.043C57.7971 7.6664 50.1959 0.0651855 40.8193 0.0651855Z" fill="url(#paint0_linear_2001_252)"/>
<path d="M28.9242 0.0651855C13.3195 0.0651855 0.49707 12.8877 0.49707 28.4924C0.49707 44.0971 13.3195 56.9195 28.9242 56.9195C44.5289 56.9195 57.3514 44.0971 57.3514 28.4924C57.3514 12.8877 44.5597 0.0651855 28.9242 0.0651855Z" fill="url(#paint1_linear_2001_252)"/>
<path fill-rule="evenodd" clip-rule="evenodd" d="M27.1702 14.854C41.1715 18.483 48.8529 21.3246 49.7612 25.4683C49.7612 24.7732 49.8206 23.9254 49.7294 23.2612C49.6724 22.5884 49.4528 21.9396 49.0894 21.3707C48.7259 20.8017 48.2297 20.3296 47.6432 19.9951L35.0627 12.7063C34.43 12.3349 33.7097 12.1392 32.976 12.1392C32.2424 12.1392 31.5221 12.3349 30.8894 12.7063L27.1702 14.854Z" fill="white"/>
<path fill-rule="evenodd" clip-rule="evenodd" d="M49.7602 33.3013C50.7279 24.7423 45.3459 23.0488 34.8813 20.1753C27.0789 18.0287 14.9823 15.2157 8.23889 13.4924C8.75247 17.6658 12.6531 20.9627 16.5548 21.8699C25.8693 24.0473 46.7965 26.2544 49.7602 33.3013ZM33.8838 36.6883C27.1999 35.3566 20.4258 34.6011 13.8331 33.8445C14.7106 36.5674 16.1622 39.6817 22.4525 40.347C27.7145 40.8914 41.353 42.1912 42.4417 44.8228C49.0047 40.589 38.0275 37.5043 33.8838 36.6883ZM40.1433 46.1237C40.2346 44.3092 26.5346 43.1897 20.4862 43.0688L30.8597 49.0566C32.1298 49.8121 33.7321 49.8121 35.0627 49.0566L40.1433 46.1237Z" fill="white"/>
<path fill-rule="evenodd" clip-rule="evenodd" d="M47.4926 41.8899C47.7048 38.14 41.474 36.3849 36.8772 35.1158C31.1313 33.5124 23.5709 32.0608 18.4606 31.1239C13.9243 30.3068 11.1113 27.253 9.47827 23.0488C12.8653 23.7746 16.2524 24.5301 19.6702 25.1657C23.4796 25.8608 30.2845 27.3431 34.2764 28.2801C40.3555 29.702 45.5879 31.4857 48.1271 34.2382C50.486 36.7785 50.3958 39.8643 47.4926 41.8899Z" fill="white"/>
</g>
<defs>
<linearGradient id="paint0_linear_2001_252" x1="28.3778" y1="38.8223" x2="31.1706" y2="2.51529" gradientUnits="userSpaceOnUse">
<stop stop-color="#0058A9"/>
<stop offset="1" stop-color="#00B8B0"/>
</linearGradient>
<linearGradient id="paint1_linear_2001_252" x1="28.1613" y1="38.5209" x2="30.9319" y2="2.49619" gradientUnits="userSpaceOnUse">
<stop stop-color="#0058A9"/>
<stop offset="1" stop-color="#00B8B0"/>
</linearGradient>
<clipPath id="clip0_2001_252">
<rect width="57.3" height="57.3" fill="white" transform="translate(0.49707 0.0651855)"/>
</clipPath>
</defs>
</svg>
