<svg width="67" height="67" viewBox="0 0 67 67" fill="none" xmlns="http://www.w3.org/2000/svg">
<g clip-path="url(#clip0_2001_485)">
<path opacity="0.3" d="M66.4872 33.1369C66.4872 14.9529 51.7462 0.211914 33.5622 0.211914C15.3782 0.211914 0.637207 14.9529 0.637207 33.1369C0.637207 51.3209 15.3782 66.0619 33.5622 66.0619C51.7462 66.0619 66.4872 51.3209 66.4872 33.1369Z" fill="#252F3E"/>
<path d="M35.1951 33.137C35.1951 37.1346 31.9765 40.3753 28.0062 40.3753C24.0357 40.3753 20.8171 37.1346 20.8171 33.137C20.8171 29.1394 24.0357 25.8987 28.0062 25.8987C31.9764 25.8987 35.1951 29.1394 35.1951 33.137ZM43.0819 33.137C43.0819 36.9 41.4726 39.9505 39.4874 39.9505C37.5023 39.9505 35.8929 36.9 35.8929 33.137C35.8929 29.3739 37.5023 26.3234 39.4874 26.3234C41.4726 26.3234 43.0819 29.3739 43.0819 33.137ZM46.3071 33.137C46.3071 36.5085 45.7411 39.2417 45.0429 39.2417C44.3447 39.2417 43.7787 36.5085 43.7787 33.137C43.7787 29.7655 44.3447 27.0323 45.0429 27.0323C45.7411 27.0323 46.3071 29.7655 46.3071 33.137Z" fill="white"/>
</g>
<defs>
<clipPath id="clip0_2001_485">
<rect width="65.85" height="65.85" fill="white" transform="translate(0.637207 0.211914)"/>
</clipPath>
</defs>
</svg>
