<svg width="86" height="86" viewBox="0 0 86 86" fill="none" xmlns="http://www.w3.org/2000/svg">
<g clip-path="url(#clip0_2001_78)">
<path d="M0.437012 34.182C0.437012 18.1637 0.437012 10.1546 5.41328 5.17829C10.3895 0.202026 18.3986 0.202026 34.417 0.202026H51.407C67.4253 0.202026 75.4345 0.202026 80.4107 5.17829C85.387 10.1546 85.387 18.1636 85.387 34.182V51.172C85.387 67.1903 85.387 75.1995 80.4107 80.1758C75.4345 85.152 67.4253 85.152 51.407 85.152H34.417C18.3987 85.152 10.3895 85.152 5.41328 80.1758C0.437012 75.1995 0.437012 67.1903 0.437012 51.172V34.182Z" fill="url(#paint0_linear_2001_78)" fill-opacity="0.9"/>
<path d="M0.968018 34.182C0.968018 26.1578 0.96908 20.193 1.58529 15.6101C2.19947 11.0423 3.41575 7.92669 5.78872 5.55361C8.1618 3.18064 11.2774 1.96437 15.8452 1.35018C20.4282 0.734078 26.3929 0.73291 34.4171 0.73291H51.4071C59.4312 0.73291 65.396 0.733972 69.979 1.35018C74.5467 1.96437 77.6624 3.18064 80.0354 5.55361C82.4084 7.92669 83.6247 11.0423 84.2389 15.6101C84.855 20.193 84.8561 26.1578 84.8561 34.182V51.172C84.8561 59.1961 84.855 65.1609 84.2389 69.7438C83.6247 74.3116 82.4084 77.4273 80.0354 79.8003C77.6624 82.1733 74.5467 83.3896 69.979 84.0038C65.396 84.6199 59.4312 84.621 51.4071 84.621H34.4171C26.3929 84.621 20.4282 84.6199 15.8452 84.0038C11.2774 83.3896 8.1618 82.1733 5.78872 79.8003C3.41575 77.4273 2.19947 74.3116 1.58529 69.7438C0.969186 65.1609 0.968018 59.1961 0.968018 51.172V34.182Z" stroke="url(#paint1_linear_2001_78)" stroke-width="1.06187"/>
<path d="M47.1596 57.5433V41.3478C47.1596 40.7613 47.635 40.2859 48.2215 40.2859H52.2739C53.1827 40.2859 53.6716 39.2184 53.0778 38.5303L43.716 27.6806C43.2924 27.1898 42.5317 27.1898 42.1081 27.6806L32.7463 38.5303C32.1525 39.2184 32.6414 40.2859 33.5503 40.2859H37.9566C38.5431 40.2859 39.0185 40.7613 39.0185 41.3478V57.5433C39.0185 58.1298 39.4939 58.6052 40.0804 58.6052H46.0977C46.6842 58.6052 47.1596 58.1298 47.1596 57.5433Z" fill="#46C7A8"/>
</g>
<defs>
<linearGradient id="paint0_linear_2001_78" x1="0.437012" y1="5.5114" x2="76.3611" y2="85.152" gradientUnits="userSpaceOnUse">
<stop stop-color="#1C404B"/>
<stop offset="1" stop-color="#1B262F" stop-opacity="0"/>
</linearGradient>
<linearGradient id="paint1_linear_2001_78" x1="51.938" y1="-7.76209" x2="25.2112" y2="28.9047" gradientUnits="userSpaceOnUse">
<stop stop-color="#3DECBE"/>
<stop offset="1" stop-color="#3DECBE" stop-opacity="0.09"/>
</linearGradient>
<clipPath id="clip0_2001_78">
<rect width="84.95" height="84.95" fill="white" transform="translate(0.437012 0.202026)"/>
</clipPath>
</defs>
</svg>
