<svg width="86" height="86" viewBox="0 0 86 86" fill="none" xmlns="http://www.w3.org/2000/svg">
<g clip-path="url(#clip0_2001_334)">
<path d="M0.23291 34.7154C0.23291 18.6971 0.232911 10.6879 5.20918 5.71162C10.1854 0.735352 18.1945 0.735352 34.2129 0.735352H51.2029C67.2212 0.735352 75.2304 0.735352 80.2066 5.71162C85.1829 10.6879 85.1829 18.697 85.1829 34.7154V51.7054C85.1829 67.7236 85.1829 75.7328 80.2066 80.7091C75.2304 85.6853 67.2212 85.6854 51.2029 85.6854H34.2129C18.1945 85.6854 10.1854 85.6853 5.20918 80.7091C0.232911 75.7328 0.23291 67.7236 0.23291 51.7054V34.7154Z" fill="url(#paint0_linear_2001_334)" fill-opacity="0.6"/>
<path d="M51.203 85.1545H34.213C26.1888 85.1545 20.224 85.1533 15.6411 84.5372C11.0733 83.923 7.95769 82.7068 5.58462 80.3338C3.21164 77.9607 1.99527 74.8451 1.38118 70.2773C0.764978 65.6943 0.763916 59.7296 0.763916 51.7054V34.7154C0.763916 26.6913 0.764978 20.7265 1.38118 16.1435C1.99527 11.5758 3.21164 8.46014 5.58462 6.08706C7.95769 3.71409 11.0733 2.49781 15.6411 1.88363C20.224 1.26753 26.1888 1.26636 34.213 1.26636H51.203C59.2271 1.26636 65.1918 1.26742 69.7749 1.88363C74.3426 2.49781 77.4583 3.71409 79.8312 6.08706C82.2043 8.46014 83.4206 11.5758 84.0347 16.1435C84.6509 20.7265 84.652 26.6913 84.652 34.7154V51.7054C84.652 59.7296 84.6509 65.6943 84.0347 70.2773C83.4206 74.8451 82.2043 77.9607 79.8312 80.3338C77.4583 82.7068 74.3426 83.923 69.7749 84.5372C65.1918 85.1533 59.2271 85.1545 51.203 85.1545Z" stroke="url(#paint1_linear_2001_334)" stroke-width="1.06187"/>
<path fill-rule="evenodd" clip-rule="evenodd" d="M49.2755 45.6934L48.9631 31.9478C48.9589 31.7641 48.8953 31.5868 48.7819 31.4423C48.6684 31.2978 48.5112 31.194 48.3337 31.1465L44.4438 30.1041C43.8981 29.9579 43.3644 30.3751 43.3746 30.9399L43.7947 54.3289C43.8079 55.0616 44.6804 55.435 45.2196 54.9385L52.7978 47.9606C53.3725 47.4314 52.9883 46.4723 52.2071 46.4863L50.1401 46.5235C49.9155 46.5275 49.6985 46.4425 49.5364 46.2869C49.3744 46.1314 49.2806 45.918 49.2755 45.6934ZM35.3045 40.3848L35.6169 54.1306C35.6211 54.3142 35.6847 54.4915 35.7982 54.636C35.9116 54.7804 36.0689 54.8842 36.2463 54.9317L40.1364 55.9741C40.682 56.1203 41.2157 55.7031 41.2056 55.1383L40.7853 31.7493C40.7721 31.0166 39.8996 30.6433 39.3606 31.1397L31.7823 38.1176C31.2075 38.6468 31.5918 39.6059 32.3729 39.5919L34.44 39.5547C34.6646 39.5507 34.8816 39.6358 35.0436 39.7913C35.2056 39.9469 35.2994 40.1603 35.3045 40.3848Z" fill="#3AD5AF"/>
</g>
<defs>
<linearGradient id="paint0_linear_2001_334" x1="4.47935" y1="8.16848" x2="85.1818" y2="85.6853" gradientUnits="userSpaceOnUse">
<stop stop-color="#245B5B" stop-opacity="0.53"/>
<stop offset="1" stop-color="#161B30" stop-opacity="0"/>
</linearGradient>
<linearGradient id="paint1_linear_2001_334" x1="13.5054" y1="0.735421" x2="69.2538" y2="106.923" gradientUnits="userSpaceOnUse">
<stop stop-color="#24595A"/>
<stop offset="1" stop-color="#235658" stop-opacity="0"/>
</linearGradient>
<clipPath id="clip0_2001_334">
<rect width="84.95" height="84.95" fill="white" transform="translate(0.231934 0.735352)"/>
</clipPath>
</defs>
</svg>
