<svg width="16" height="16" viewBox="0 0 16 16" fill="none" xmlns="http://www.w3.org/2000/svg">
<g clip-path="url(#clip0_2001_297)">
<path d="M7.74626 11.7441H7.75376M5.80626 6.41081C5.96299 5.96525 6.27236 5.58954 6.67956 5.35023C7.08676 5.11091 7.56552 5.02343 8.03104 5.10328C8.49656 5.18313 8.9188 5.42516 9.22297 5.78649C9.52715 6.14783 9.69363 6.60515 9.69292 7.07747C9.69292 8.41081 7.69292 9.07747 7.69292 9.07747M14.4129 8.41081C14.4129 12.0927 11.4282 15.0774 7.74626 15.0774C4.06436 15.0774 1.07959 12.0927 1.07959 8.41081C1.07959 4.72891 4.06436 1.74414 7.74626 1.74414C11.4282 1.74414 14.4129 4.72891 14.4129 8.41081Z" stroke="white" stroke-opacity="0.7" stroke-width="1.3" stroke-linecap="round" stroke-linejoin="round"/>
</g>
<defs>
<clipPath id="clip0_2001_297">
<rect width="15" height="15" fill="white" transform="translate(0.0795898 0.744141)"/>
</clipPath>
</defs>
</svg>
