<svg width="86" height="86" viewBox="0 0 86 86" fill="none" xmlns="http://www.w3.org/2000/svg">
<g clip-path="url(#clip0_2001_92)">
<path d="M0.967285 34.182C0.967285 18.1637 0.967285 10.1546 5.94355 5.17829C10.9198 0.202026 18.9289 0.202026 34.9473 0.202026H51.9373C67.9556 0.202026 75.9648 0.202026 80.941 5.17829C85.9173 10.1546 85.9173 18.1636 85.9173 34.182V51.172C85.9173 67.1903 85.9173 75.1995 80.941 80.1758C75.9648 85.152 67.9556 85.152 51.9373 85.152H34.9473C18.929 85.152 10.9198 85.152 5.94355 80.1758C0.967285 75.1995 0.967285 67.1903 0.967285 51.172V34.182Z" fill="url(#paint0_linear_2001_92)" fill-opacity="0.9"/>
<path d="M1.49829 34.182C1.49829 26.1578 1.49935 20.193 2.11556 15.6101C2.72975 11.0423 3.94602 7.92669 6.31899 5.55361C8.69207 3.18064 11.8077 1.96437 16.3755 1.35018C20.9584 0.734078 26.9232 0.73291 34.9474 0.73291H51.9374C59.9615 0.73291 65.9263 0.733972 70.5092 1.35018C75.077 1.96437 78.1926 3.18064 80.5657 5.55361C82.9387 7.92669 84.155 11.0423 84.7691 15.6101C85.3852 20.193 85.3864 26.1578 85.3864 34.182V51.172C85.3864 59.1961 85.3852 65.1609 84.7691 69.7438C84.155 74.3116 82.9387 77.4273 80.5657 79.8003C78.1926 82.1733 75.077 83.3896 70.5092 84.0038C65.9263 84.6199 59.9615 84.621 51.9374 84.621H34.9474C26.9232 84.621 20.9584 84.6199 16.3755 84.0038C11.8077 83.3896 8.69207 82.1733 6.31899 79.8003C3.94602 77.4273 2.72975 74.3116 2.11556 69.7438C1.49946 65.1609 1.49829 59.1961 1.49829 51.172V34.182Z" stroke="url(#paint1_linear_2001_92)" stroke-width="1.06187"/>
<path d="M43.6085 40.4663C46.3674 40.4663 48.604 38.2298 48.604 35.4708C48.604 32.7119 46.3674 30.4753 43.6085 30.4753C40.8496 30.4753 38.6129 32.7119 38.6129 35.4708C38.6129 38.2298 40.8496 40.4663 43.6085 40.4663ZM53.7146 40.4663C55.4587 40.4663 56.8726 39.0524 56.8726 37.3082C56.8726 35.5641 55.4587 34.1502 53.7146 34.1502C51.9704 34.1502 50.5565 35.5641 50.5565 37.3082C50.5565 39.0524 51.9704 40.4663 53.7146 40.4663ZM33.5027 40.4663C35.2468 40.4663 36.6607 39.0524 36.6607 37.3082C36.6607 35.5641 35.2468 34.1502 33.5027 34.1502C31.7585 34.1502 30.3445 35.5641 30.3445 37.3082C30.3445 39.0524 31.7585 40.4663 33.5027 40.4663ZM36.6145 43.3024C35.3714 42.2838 34.2456 42.4187 32.8082 42.4187C30.6584 42.4187 28.9094 44.1573 28.9094 46.2939V52.5647C28.9094 53.4925 29.6668 54.2471 30.5981 54.2471C34.6189 54.2471 34.1346 54.3199 34.1346 54.0737C34.1346 49.6302 33.6082 46.3716 36.6145 43.3024Z" fill="#46C7A8"/>
<path d="M44.9757 42.4423C42.465 42.2329 40.2829 42.4447 38.4006 43.9983C35.2507 46.5213 35.8569 49.9185 35.8569 54.0744C35.8569 55.1738 36.7515 56.0851 37.8678 56.0851C49.988 56.0851 50.4703 56.4761 51.1891 54.8845C51.4248 54.3463 51.3602 54.5173 51.3602 49.3682C51.3602 45.2784 47.8189 42.4423 44.9757 42.4423ZM54.4095 42.4185C52.9643 42.4185 51.8447 42.2851 50.6032 43.3022C53.587 46.3487 53.0832 49.3849 53.0832 54.0735C53.0832 54.3212 52.681 54.2469 56.5593 54.2469C57.524 54.2469 58.3083 53.4655 58.3083 52.5048V46.2938C58.3083 44.1572 56.5593 42.4185 54.4095 42.4185Z" fill="#46C7A8"/>
</g>
<defs>
<linearGradient id="paint0_linear_2001_92" x1="0.967285" y1="5.5114" x2="76.8913" y2="85.152" gradientUnits="userSpaceOnUse">
<stop stop-color="#1C404B"/>
<stop offset="1" stop-color="#1B262F" stop-opacity="0"/>
</linearGradient>
<linearGradient id="paint1_linear_2001_92" x1="64.6798" y1="0.201974" x2="39.1602" y2="22.4195" gradientUnits="userSpaceOnUse">
<stop stop-color="#3DECBE"/>
<stop offset="1" stop-color="#3DECBE" stop-opacity="0.09"/>
</linearGradient>
<clipPath id="clip0_2001_92">
<rect width="84.95" height="84.95" fill="white" transform="translate(0.967285 0.202026)"/>
</clipPath>
</defs>
</svg>
