<svg width="85" height="86" viewBox="0 0 85 86" fill="none" xmlns="http://www.w3.org/2000/svg">
<g clip-path="url(#clip0_2001_64)">
<path d="M0.0371094 34.182C0.0371094 18.1637 0.0371094 10.1546 5.01337 5.17829C9.98964 0.202026 17.9987 0.202026 34.0171 0.202026H51.0071C67.0254 0.202026 75.0346 0.202026 80.0108 5.17829C84.9871 10.1546 84.9871 18.1636 84.9871 34.182V51.172C84.9871 67.1903 84.9871 75.1995 80.0108 80.1758C75.0346 85.152 67.0254 85.152 51.0071 85.152H34.0171C17.9988 85.152 9.98964 85.152 5.01337 80.1758C0.0371094 75.1995 0.0371094 67.1903 0.0371094 51.172V34.182Z" fill="url(#paint0_linear_2001_64)" fill-opacity="0.9"/>
<path d="M0.568115 34.182C0.568115 26.1578 0.569177 20.193 1.18538 15.6101C1.79957 11.0423 3.01584 7.92669 5.38882 5.55361C7.76189 3.18064 10.8775 1.96437 15.4453 1.35018C20.0282 0.734078 25.993 0.73291 34.0172 0.73291H51.0072C59.0313 0.73291 64.9961 0.733972 69.5791 1.35018C74.1468 1.96437 77.2625 3.18064 79.6355 5.55361C82.0085 7.92669 83.2248 11.0423 83.839 15.6101C84.4551 20.193 84.4562 26.1578 84.4562 34.182V51.172C84.4562 59.1961 84.4551 65.1609 83.839 69.7438C83.2248 74.3116 82.0085 77.4273 79.6355 79.8003C77.2625 82.1733 74.1468 83.3896 69.5791 84.0038C64.9961 84.6199 59.0313 84.621 51.0072 84.621H34.0172C25.993 84.621 20.0282 84.6199 15.4453 84.0038C10.8775 83.3896 7.76189 82.1733 5.38882 79.8003C3.01584 77.4273 1.79957 74.3116 1.18538 69.7438C0.569283 65.1609 0.568115 59.1961 0.568115 51.172V34.182Z" stroke="url(#paint1_linear_2001_64)" stroke-width="1.06187"/>
<path fill-rule="evenodd" clip-rule="evenodd" d="M51.1338 45.603L50.7623 29.2263C50.7553 28.9203 50.6494 28.6248 50.4603 28.3841C50.2713 28.1433 50.0094 27.9703 49.7138 27.891L45.6414 26.7981C44.7319 26.5541 43.8419 27.2495 43.8588 28.191L44.3548 55.839C44.3767 57.0607 45.832 57.6826 46.7302 56.8542L54.7908 49.4207C55.7478 48.5383 55.1071 46.9409 53.8056 46.9644L52.5747 46.9864C51.7955 47.0005 51.1515 46.3821 51.1338 45.603ZM33.8857 39.7584L34.2572 56.1351C34.2641 56.4411 34.37 56.7366 34.5591 56.9773C34.7481 57.2181 35.01 57.391 35.3056 57.4703L39.378 58.5632C40.2876 58.8073 41.1776 58.1119 41.1607 57.1704L40.6647 29.5224C40.6427 28.3007 39.1875 27.6787 38.2893 28.5071L30.2286 35.9407C29.2717 36.8231 29.9124 38.4205 31.2138 38.397L32.4447 38.375C33.2239 38.3609 33.868 38.9792 33.8857 39.7584Z" fill="#46C7A8"/>
</g>
<defs>
<linearGradient id="paint0_linear_2001_64" x1="0.0371094" y1="5.5114" x2="75.9612" y2="85.152" gradientUnits="userSpaceOnUse">
<stop stop-color="#1C404B"/>
<stop offset="1" stop-color="#1B262F" stop-opacity="0"/>
</linearGradient>
<linearGradient id="paint1_linear_2001_64" x1="33.4862" y1="-25.814" x2="15.2195" y2="15.9151" gradientUnits="userSpaceOnUse">
<stop stop-color="#3DECBE"/>
<stop offset="1" stop-color="#3DECBE" stop-opacity="0.09"/>
</linearGradient>
<clipPath id="clip0_2001_64">
<rect width="84.95" height="84.95" fill="white" transform="translate(0.0371094 0.202026)"/>
</clipPath>
</defs>
</svg>
