<svg width="118" height="37" viewBox="0 0 118 37" fill="none" xmlns="http://www.w3.org/2000/svg">
<path d="M32.8127 22.6295H34.9099V14.5385H37.6524V12.5819H30.0881V14.5385H32.8127V22.6295ZM37.6524 22.6295H39.6242V19.245C39.6242 18.064 40.2336 17.3589 41.1836 17.3589C41.5062 17.3589 41.7751 17.4118 42.0799 17.5176V15.5433C41.8648 15.4904 41.6317 15.4551 41.4166 15.4551C40.61 15.4551 39.8751 15.984 39.6242 16.6715V15.5433H37.6524V22.6295ZM45.862 22.7882C46.8479 22.7882 47.6007 22.2946 47.9413 21.8363V22.6295H49.9131V15.5609H47.9413V16.3541C47.6186 15.8958 46.8658 15.4023 45.862 15.4023C43.9441 15.4023 42.4742 17.0945 42.4742 19.1041C42.4742 21.096 43.9441 22.7882 45.862 22.7882ZM46.2743 21.0254C45.1809 21.0254 44.4639 20.2146 44.4639 19.1041C44.4639 17.9935 45.1809 17.1826 46.2743 17.1826C47.3677 17.1826 48.0847 17.9935 48.0847 19.1041C48.0847 20.2146 47.3677 21.0254 46.2743 21.0254ZM54.5915 22.7882C55.5773 22.7882 56.3301 22.2946 56.6707 21.8363V22.6295H58.6424V12.0178H56.6707V16.3541C56.348 15.8958 55.5952 15.4023 54.5915 15.4023C52.6734 15.4023 51.2037 17.0945 51.2037 19.1041C51.2216 21.096 52.6734 22.7882 54.5915 22.7882ZM55.0216 21.0254C53.9282 21.0254 53.2112 20.2146 53.2112 19.1041C53.2112 17.9935 53.9282 17.1826 55.0216 17.1826C56.115 17.1826 56.832 17.9935 56.832 19.1041C56.832 20.2146 56.115 21.0254 55.0216 21.0254ZM61.3849 14.4856C62.084 14.4856 62.6576 13.9392 62.6576 13.2518C62.6576 12.5643 62.084 12.0178 61.3849 12.0178C60.7038 12.0178 60.1302 12.5643 60.1302 13.2518C60.1481 13.9216 60.7038 14.468 61.3849 14.4856ZM60.417 22.6295H62.3888V15.6314H60.417V22.6295ZM64.1274 22.6295H66.0992V19.1745C66.0992 17.8172 66.7803 17.165 67.6945 17.165C68.519 17.165 68.9672 17.782 68.9672 18.8043V22.6295H70.9389V18.4871C70.9389 16.6538 69.8993 15.4023 68.1605 15.4023C67.2284 15.4023 66.4935 15.7901 66.0992 16.3718V15.5609H64.1274V22.6295ZM75.9578 20.7434C74.972 20.7434 74.1295 20.0031 74.1295 18.9278C74.1295 17.8349 74.9541 17.1122 75.9578 17.1122C76.9437 17.1122 77.7862 17.8349 77.7862 18.9278C77.7862 20.0207 76.9616 20.7434 75.9578 20.7434ZM75.7248 25.6967C77.9296 25.6967 79.5966 24.5862 79.5966 22.0478V15.5257H77.6248V16.3189C77.2305 15.7725 76.4597 15.367 75.5455 15.367C73.6635 15.367 72.1577 16.9535 72.1577 18.9454C72.1577 20.9197 73.6635 22.5062 75.5455 22.5062C76.4597 22.5062 77.2484 22.1007 77.6248 21.5719V22.0478C77.6248 23.176 76.8541 23.9868 75.6889 23.9868C74.8823 23.9868 74.0758 23.7224 73.4483 23.1054L72.3729 24.5509C73.1974 25.3441 74.4701 25.6967 75.7248 25.6967ZM83.7731 22.6295H85.6373L89.8675 12.5819H87.5732L84.7231 19.5624L81.8372 12.5819H79.5786L83.7731 22.6295ZM91.6596 14.3975C92.359 14.3975 92.9146 13.851 92.9326 13.1636C92.9326 12.4761 92.359 11.9297 91.6596 11.9297C90.979 11.9297 90.4053 12.4761 90.4053 13.1636C90.4053 13.851 90.997 14.3975 91.6596 14.3975ZM90.6922 22.6295H92.6638V15.5433H90.6922V22.6295ZM97.7548 22.7882C99.2597 22.7882 100.408 22.1712 101.088 21.2017L99.6184 20.1264C99.2957 20.62 98.6682 21.0254 97.7548 21.0254C96.8045 21.0254 95.9622 20.4966 95.8363 19.5448H101.214C101.25 19.245 101.25 19.0511 101.25 18.8749C101.25 16.5657 99.6004 15.4023 97.7009 15.4023C95.5136 15.4023 93.9188 17.0063 93.9188 19.0864C93.9547 21.3251 95.6215 22.7882 97.7548 22.7882ZM95.9262 18.2403C96.1231 17.3765 96.9295 17.0063 97.6649 17.0063C98.3994 17.0063 99.1168 17.3942 99.2957 18.2403H95.9262ZM108.652 22.6295H110.607L112.973 15.5433H110.858L109.513 20.0735L108.043 15.5433H106.538L105.086 20.0735L103.723 15.5433H101.626L104.01 22.6295H105.964L107.308 18.6104L108.652 22.6295Z" fill="white"/>
<path d="M13.3822 22.6294H9.4029V16.495H5.42358V12.5818H13.3643V22.6294H13.3822ZM21.3409 22.6294H16.8058L21.072 12.5818H25.607L21.3409 22.6294ZM16.788 12.5818C18.0427 12.5818 19.0644 13.5865 19.0644 14.8205C19.0644 16.0544 18.0427 17.0592 16.788 17.0592C15.5332 17.0592 14.5115 16.0544 14.5115 14.8205C14.5294 13.5865 15.5332 12.5818 16.788 12.5818Z" fill="white"/>
</svg>
