<svg width="86" height="86" viewBox="0 0 86 86" fill="none" xmlns="http://www.w3.org/2000/svg">
<g clip-path="url(#clip0_2001_318)">
<path d="M0.373047 34.7154C0.373047 18.6971 0.373047 10.6879 5.3493 5.71161C10.3256 0.735352 18.3347 0.735352 34.3531 0.735352H51.3431C67.3613 0.735352 75.3705 0.735352 80.3468 5.71161C85.3231 10.6879 85.3231 18.6971 85.3231 34.7154V51.7054C85.3231 67.7236 85.3231 75.7328 80.3468 80.7091C75.3705 85.6853 67.3613 85.6854 51.3431 85.6854H34.3531C18.3347 85.6854 10.3256 85.6853 5.3493 80.7091C0.373047 75.7328 0.373047 67.7236 0.373047 51.7054V34.7154Z" fill="url(#paint0_linear_2001_318)" fill-opacity="0.6"/>
<path d="M0.904053 34.7154C0.904053 26.6913 0.905179 20.7265 1.52135 16.1435C2.13547 11.5758 3.35176 8.46015 5.7248 6.0871C8.09784 3.71406 11.2135 2.49777 15.7813 1.88366C20.3642 1.26749 26.329 1.26636 34.3531 1.26636H51.3431C59.3673 1.26636 65.332 1.26749 69.915 1.88366C74.4828 2.49777 77.5984 3.71406 79.9714 6.0871C82.3445 8.46015 83.5608 11.5758 84.1748 16.1435C84.791 20.7265 84.7922 26.6913 84.7922 34.7154V51.7054C84.7922 59.7296 84.791 65.6943 84.1748 70.2773C83.5608 74.8451 82.3445 77.9607 79.9714 80.3338C77.5984 82.7068 74.4828 83.923 69.915 84.5372C65.332 85.1533 59.3673 85.1545 51.3431 85.1545H34.3531C26.329 85.1545 20.3642 85.1533 15.7813 84.5372C11.2135 83.923 8.09784 82.7068 5.7248 80.3338C3.35176 77.9607 2.13547 74.8451 1.52135 70.2773C0.905179 65.6943 0.904053 59.7296 0.904053 51.7054V34.7154Z" stroke="url(#paint1_linear_2001_318)" stroke-width="1.06187"/>
<path fill-rule="evenodd" clip-rule="evenodd" d="M46.0326 45.6374C46.0326 48.6482 48.1765 51.0985 50.8111 51.0985H53.4657V53.5256C53.4657 54.8642 52.5132 55.9528 51.342 55.9528H33.2901C31.5338 55.9528 30.1045 54.3193 30.1045 52.312V33.8051C30.1045 33.718 30.1246 33.638 30.1445 33.558C30.1493 33.5389 30.1541 33.5197 30.1586 33.5005C30.4135 31.7833 31.7154 30.4678 33.2901 30.4678H48.1564C49.3276 30.4678 50.2801 31.5563 50.2801 32.8949V35.322H51.342C52.5132 35.322 53.4657 36.4107 53.4657 37.7492V40.1764H50.8111C48.1765 40.1764 46.0326 42.6266 46.0326 45.6374ZM33.2901 32.8949C32.704 32.8949 32.2282 33.4399 32.2282 34.1085C32.2282 34.7772 32.704 35.322 33.2901 35.322H48.1564V32.8949H33.2901ZM50.8111 41.9965H54.7931C55.2327 41.9965 55.5895 42.4043 55.5895 42.9068V48.3678C55.5895 48.8703 55.2327 49.278 54.7931 49.278H50.8111C49.0547 49.278 47.6254 47.6446 47.6254 45.6373C47.6254 43.63 49.0547 41.9965 50.8111 41.9965ZM49.7492 45.6373C49.7492 46.3072 50.2249 46.8509 50.8111 46.8509C51.3972 46.8509 51.8729 46.3072 51.8729 45.6373C51.8729 44.9675 51.3972 44.4238 50.8111 44.4238C50.2249 44.4238 49.7492 44.9675 49.7492 45.6373Z" fill="#3AD5AF"/>
</g>
<defs>
<linearGradient id="paint0_linear_2001_318" x1="4.61951" y1="8.16848" x2="85.322" y2="85.6854" gradientUnits="userSpaceOnUse">
<stop stop-color="#245B5B" stop-opacity="0.53"/>
<stop offset="1" stop-color="#161B30" stop-opacity="0"/>
</linearGradient>
<linearGradient id="paint1_linear_2001_318" x1="13.6455" y1="0.73542" x2="69.3939" y2="106.923" gradientUnits="userSpaceOnUse">
<stop stop-color="#24595A"/>
<stop offset="1" stop-color="#235658" stop-opacity="0"/>
</linearGradient>
<clipPath id="clip0_2001_318">
<rect width="84.95" height="84.95" fill="white" transform="translate(0.37207 0.735352)"/>
</clipPath>
</defs>
</svg>
